# xmcd CD database file generated by Grip 2.91
# 
# Track frame offsets:
#       151
#       17441
#       32155
#       49250
#       74230
#       94054
#       109747
# 
# Disc length: 1640 seconds
# 
# Revision: 3
# Processed by: cddbd v1.4b41PL1 Copyright (c) Steve Scherf et al.
# Submitted via: Grip 2.91
# 
DISCID=5c066607
DTITLE=Bob Like - Talkin' To Myself
DYEAR=1900
DGENRE=
TTITLE0=Talking To Myself
TTITLE1=Now Youre Gone
TTITLE2=Soup Kitchen
TTITLE3=Blues For You
TTITLE4=My Days Comin'
TTITLE5=Starting To Fall
TTITLE6=Auld Lang Syne 2000
EXTD=
EXTT0=
EXTT1=
EXTT2=
EXTT3=
EXTT4=
EXTT5=
EXTT6=
PLAYORDER=
